<svg xmlns="http://www.w3.org/2000/svg" xmlns:xlink="http://www.w3.org/1999/xlink" viewBox="0 0 144.68 84.06"><defs><style>.cls-1{opacity:0.9;}.cls-2{fill:url(#linear-gradient);}.cls-3{opacity:0.8;}.cls-4{fill:#20202a;}</style><linearGradient id="linear-gradient" x1="54.03" y1="21.02" x2="82.5" y2="21.02" gradientUnits="userSpaceOnUse"><stop offset="0" stop-color="#5c2d90"/><stop offset="1" stop-color="#eb008b"/></linearGradient></defs><g id="Layer_2" data-name="Layer 2"><g id="Layer_1-2" data-name="Layer 1"><g class="cls-1"><path class="cls-2" d="M79.89,9.75a3.93,3.93,0,0,0-4,.35,4.51,4.51,0,0,0-8-.95,4.42,4.42,0,0,0-4.94-.55v-4A4.45,4.45,0,0,0,59.9.22a4.39,4.39,0,0,0-3.53.35A4.41,4.41,0,0,0,54.2,3.36a5.44,5.44,0,0,0-.14,1.19q0,3.18,0,6.37c0,5.33,0,10.85.07,16.27a14.54,14.54,0,0,0,7.72,13.16A12.3,12.3,0,0,0,68.08,42a14.24,14.24,0,0,0,12.81-8.19,15.64,15.64,0,0,0,1.59-7.18c0-1.84,0-3.67,0-5.51q0-3.64,0-7.29A4.25,4.25,0,0,0,79.89,9.75Zm-6.12,9.63H69.66V18.09c0-2.12,0-4.23,0-6.35a2.11,2.11,0,0,1,.15-.8,2,2,0,0,1,4,.73c0,.88,0,1.77,0,2.65ZM76.43,18c0-1.32,0-2.63,0-3.95a3.83,3.83,0,0,1,.17-1,1.74,1.74,0,0,1,1-1.06A1.58,1.58,0,0,1,79,12a2,2,0,0,1,1.08,1.89c0,1.83,0,3.66,0,5.49v.45a3.68,3.68,0,0,0-1.83-.46H76.44Zm-20-11c0-.86,0-1.72,0-2.59a2,2,0,0,1,1.86-2h.18a2.08,2.08,0,0,1,2,1.61,3.67,3.67,0,0,1,.08.75v5.81q0,4.44,0,8.88a4.44,4.44,0,0,0,3.75,4.38,4.16,4.16,0,0,0,.45,2,4.41,4.41,0,0,0,3.81,2.5,6,6,0,0,0-1.69,4.78,1.22,1.22,0,0,0,1.27,1.21,1.2,1.2,0,0,0,.87-.41,1.27,1.27,0,0,0,.29-1,3.87,3.87,0,0,1,1.35-3.24,11.78,11.78,0,0,1,2.79-1.93l.92-.53.4-.23a.53.53,0,0,0,.23-.64l0-.12a.52.52,0,0,0-.49-.33H68.84a2,2,0,0,1-2-1.64,2.12,2.12,0,0,1,.44-1.75,2.09,2.09,0,0,1,1.63-.71h9.38a1.13,1.13,0,0,1,1,.5,3.54,3.54,0,0,1,.81,2.28c0,.48,0,.95,0,1.43a16.9,16.9,0,0,1-.28,3.72A12.77,12.77,0,0,1,76,36.51a11,11,0,0,1-10.39,2.8,11.26,11.26,0,0,1-6.54-4.43,13.13,13.13,0,0,1-2.62-8h0l0-18.94Zm8.62,3.53h0a2.05,2.05,0,0,1,2,2.05c0,1.81,0,3.63,0,5.44v1.41a1,1,0,0,1,0,.19c0,.07,0,.1,0,.09A4.86,4.86,0,0,0,65,21.47a2,2,0,0,1-2-1.94v-.87c0-.52,0-1,0-1.55V15c0-.52,0-1,0-1.56,0-.29,0-.58,0-.87A2,2,0,0,1,65.1,10.54Z"/><g class="cls-3"><path class="cls-4" d="M1.68,56.08a1.56,1.56,0,0,1,1.58,1.55,1.59,1.59,0,0,1-1.58,1.68A1.61,1.61,0,0,1,0,57.63,1.58,1.58,0,0,1,1.68,56.08ZM2.9,76.61a1.24,1.24,0,0,1-1.29,1.22A1.24,1.24,0,0,1,.32,76.61V64.15a1.24,1.24,0,0,1,1.29-1.23A1.24,1.24,0,0,1,2.9,64.15Z"/><path class="cls-4" d="M15,62.83c2.25,0,3.84,1,4.38,2.51a6.2,6.2,0,0,1,5.1-2.51c2.68,0,4.68,1.29,4.68,5.26v8.52a1.29,1.29,0,0,1-2.58,0V68.8c0-2.39-1-3.55-3.13-3.55a4.33,4.33,0,0,0-3.81,2.09c0,.26,0,.71,0,1v8.23a1.29,1.29,0,0,1-2.58,0V68.25a2.8,2.8,0,0,0-3.09-3,4.68,4.68,0,0,0-3.81,2v9.39a1.24,1.24,0,0,1-1.29,1.22,1.24,1.24,0,0,1-1.29-1.22V64.15a1.24,1.24,0,0,1,1.29-1.23,1.24,1.24,0,0,1,1.29,1.23v.77A6.49,6.49,0,0,1,15,62.83Z"/><path class="cls-4" d="M35.76,82.83a1.29,1.29,0,0,1-2.58,0V64.15a1.29,1.29,0,0,1,2.58,0v.65a6.73,6.73,0,0,1,4.93-2c4.14,0,6.72,3.07,6.72,7.36s-3,7.81-7.55,7.81a7.69,7.69,0,0,1-4.1-1Zm0-8.45a6.43,6.43,0,0,0,3.87,1.13c3.1,0,5-2.23,5-5.29s-1.71-5-4.71-5a5.5,5.5,0,0,0-4.19,2Z"/><path class="cls-4" d="M63.7,70.12a1.19,1.19,0,0,1-1.09,1H52.41c.23,2.75,2.23,4.36,5.07,4.36A6.74,6.74,0,0,0,61,74.64a1.44,1.44,0,0,1,.71-.2,1.13,1.13,0,0,1,.87.42.9.9,0,0,1,.19.58,1,1,0,0,1-.39.88,8.54,8.54,0,0,1-5.13,1.61c-4.71,0-7.77-3-7.77-7.58,0-4.23,2.71-7.59,7.48-7.59a6.49,6.49,0,0,1,6.75,6.65A4.05,4.05,0,0,1,63.7,70.12Zm-6.84-4.94a4.36,4.36,0,0,0-4.61,3.88h8.81A3.86,3.86,0,0,0,56.86,65.18Z"/><path class="cls-4" d="M69.35,76.54a1.29,1.29,0,1,1-2.58,0V64.21a1.29,1.29,0,0,1,2.58,0v.59a4.12,4.12,0,0,1,3.65-2,5,5,0,0,1,1.32.19c.52.16.94.48.94,1a1.75,1.75,0,0,1-.07.42,1.17,1.17,0,0,1-1.29.91,5.2,5.2,0,0,1-.64-.07,4.25,4.25,0,0,0-.87-.06,3.25,3.25,0,0,0-3,2.06Z"/><path class="cls-4" d="M83.78,74.15A32.75,32.75,0,0,1,85,70.86l3-7.13a1.31,1.31,0,0,1,1.22-.81,1.2,1.2,0,0,1,1.23,1.2,1.18,1.18,0,0,1-.1.48L85,76.93a1.32,1.32,0,0,1-1.29.9,1.36,1.36,0,0,1-1.29-.9L76.81,64.86a1.19,1.19,0,0,1-.13-.55,1.41,1.41,0,0,1,1.42-1.39,1.33,1.33,0,0,1,1.23.81l3.22,7.2C83,71.86,83.42,73.09,83.78,74.15Z"/><path class="cls-4" d="M94.82,56.08a1.56,1.56,0,0,1,1.58,1.55,1.59,1.59,0,0,1-1.58,1.68,1.61,1.61,0,0,1-1.68-1.68A1.58,1.58,0,0,1,94.82,56.08ZM96,76.61a1.29,1.29,0,0,1-2.58,0V64.15a1.29,1.29,0,0,1,2.58,0Z"/><path class="cls-4" d="M107.53,62.76a7.59,7.59,0,1,1-7.74,7.59A7.35,7.35,0,0,1,107.53,62.76Zm0,12.75a5.17,5.17,0,0,0,0-10.33,5.17,5.17,0,0,0,0,10.33Z"/><path class="cls-4" d="M128.48,64.15a1.29,1.29,0,0,1,2.58,0V76.61a1.29,1.29,0,0,1-2.58,0V75.54a6.7,6.7,0,0,1-5.13,2.39c-3.23,0-5.36-1.94-5.36-6.2V64.15a1.29,1.29,0,0,1,2.58,0v7c0,2.75,1.1,4.36,3.74,4.36a5.57,5.57,0,0,0,4.17-2.16Z"/><path class="cls-4" d="M134.35,74.77a1.12,1.12,0,0,1,.91-.46,1.29,1.29,0,0,1,.74.23,5.89,5.89,0,0,0,3.35,1.13c1.36,0,2.58-.68,2.58-2,0-2.94-7.84-1.49-7.84-6.81,0-2.55,2.07-4.1,4.94-4.1a7.77,7.77,0,0,1,4.13,1.1,1,1,0,0,1,.52.9,1.16,1.16,0,0,1-.2.62,1.1,1.1,0,0,1-1,.51,1.21,1.21,0,0,1-.65-.16,5.53,5.53,0,0,0-2.71-.71c-1.45,0-2.32.84-2.32,1.81,0,3.06,7.84,1.61,7.84,6.71,0,3.07-2.71,4.39-5.62,4.39a7,7,0,0,1-4.55-1.55,1.14,1.14,0,0,1-.42-.9A1.13,1.13,0,0,1,134.35,74.77Z"/></g></g></g></g></svg>