<svg xmlns="http://www.w3.org/2000/svg" xmlns:xlink="http://www.w3.org/1999/xlink" viewBox="0 0 64.76 64.76"><defs><style>.cls-1{fill:url(#linear-gradient);}.cls-2{fill:#e8e5e2;}</style><linearGradient id="linear-gradient" y1="32.38" x2="64.76" y2="32.38" gradientUnits="userSpaceOnUse"><stop offset="0" stop-color="#5c2d90"/><stop offset="1" stop-color="#eb008b"/></linearGradient></defs><g id="Layer_2" data-name="Layer 2"><g id="Layer_1-2" data-name="Layer 1"><circle class="cls-1" cx="32.38" cy="32.38" r="32.38"/><path class="cls-2" d="M43.81,21.92a3.88,3.88,0,0,0-4,.35,4.51,4.51,0,0,0-7.95-1A4.42,4.42,0,0,0,27,20.77v-4a4.48,4.48,0,0,0-3.15-4.37,4.41,4.41,0,0,0-3.52.35,4.35,4.35,0,0,0-2.17,2.79A5,5,0,0,0,18,16.71c0,2.12,0,4.25,0,6.37,0,5.33,0,10.85.06,16.28a14.58,14.58,0,0,0,7.72,13.16A12.42,12.42,0,0,0,32,54.2,14.24,14.24,0,0,0,44.8,46a15.52,15.52,0,0,0,1.6-7.18c0-1.84,0-3.67,0-5.51,0-2.43,0-4.86,0-7.29A4.26,4.26,0,0,0,43.81,21.92Zm-6.13,9.62h-4.1V30.25c0-2.11,0-4.23,0-6.35a2.32,2.32,0,0,1,.14-.8,2,2,0,0,1,4,.73c0,.89,0,1.77,0,2.66Zm2.67-1.38c0-1.32,0-2.63,0-3.95a3.22,3.22,0,0,1,.17-1,1.72,1.72,0,0,1,1-1.06,1.67,1.67,0,0,1,1.37.05A2,2,0,0,1,44,26.06c0,1.83,0,3.66,0,5.49V32a3.72,3.72,0,0,0-1.84-.45h-1.8Zm-20-11c0-.86,0-1.72,0-2.58a2,2,0,0,1,1.86-2h.18a2.08,2.08,0,0,1,2,1.61,3.16,3.16,0,0,1,.08.76v5.8q0,4.44,0,8.88A4.44,4.44,0,0,0,28.27,36a4.16,4.16,0,0,0,.45,2,4.43,4.43,0,0,0,3.81,2.5,6,6,0,0,0-1.69,4.78,1.23,1.23,0,0,0,1.28,1.21A1.2,1.2,0,0,0,33,46.1a1.29,1.29,0,0,0,.28-1,3.89,3.89,0,0,1,1.35-3.25,12.4,12.4,0,0,1,2.79-1.93l.93-.53.39-.23a.53.53,0,0,0,.23-.64l0-.12a.53.53,0,0,0-.49-.33H32.76a2,2,0,0,1-2-1.64,2.16,2.16,0,0,1,.45-1.75A2.11,2.11,0,0,1,32.82,34c1.78,0,3.56,0,5.34,0h4a1.16,1.16,0,0,1,1,.5A3.67,3.67,0,0,1,44,36.78c0,.47,0,.95,0,1.42a17.53,17.53,0,0,1-.29,3.72,12.67,12.67,0,0,1-3.79,6.75,10.94,10.94,0,0,1-10.38,2.8A11.25,11.25,0,0,1,23,47a13.06,13.06,0,0,1-2.61-8h0l0-18.94ZM29,22.7h0a2.07,2.07,0,0,1,2,2.06q0,2.72,0,5.43V31.6a1,1,0,0,1,0,.19c0,.07-.05.1,0,.09A4.83,4.83,0,0,0,29,33.63a1.91,1.91,0,0,1-1.37-.55A2,2,0,0,1,27,31.7c0-.3,0-.59,0-.88V25.55c0-.29,0-.58,0-.87A2,2,0,0,1,29,22.7Z"/></g></g></svg>